<?xml version="1.0" encoding="UTF-8" standalone="no"?>
<!-- Created with Inkscape (http://www.inkscape.org/) -->

<svg
   xmlns:dc="http://purl.org/dc/elements/1.1/"
   xmlns:cc="http://creativecommons.org/ns#"
   xmlns:rdf="http://www.w3.org/1999/02/22-rdf-syntax-ns#"
   xmlns:svg="http://www.w3.org/2000/svg"
   xmlns="http://www.w3.org/2000/svg"
   xmlns:sodipodi="http://sodipodi.sourceforge.net/DTD/sodipodi-0.dtd"
   xmlns:inkscape="http://www.inkscape.org/namespaces/inkscape"
   id="svg2985"
   version="1.1"
   inkscape:version="0.48.0 r9654"
   width="743.75"
   height="1052.5"
   xml:space="preserve"
   sodipodi:docname="plate-inv.pdf"><metadata
     id="metadata2991"><rdf:RDF><cc:Work
         rdf:about=""><dc:format>image/svg+xml</dc:format><dc:type
           rdf:resource="http://purl.org/dc/dcmitype/StillImage" /><dc:title></dc:title></cc:Work></rdf:RDF></metadata><defs
     id="defs2989"><clipPath
       clipPathUnits="userSpaceOnUse"
       id="clipPath3001"><path
         d="m 180,180 0,7920 5580,0 0,-7920 -5580,0 z"
         id="path3003" /></clipPath></defs><sodipodi:namedview
     pagecolor="#ffffff"
     bordercolor="#666666"
     borderopacity="1"
     objecttolerance="10"
     gridtolerance="10"
     guidetolerance="10"
     inkscape:pageopacity="0"
     inkscape:pageshadow="2"
     inkscape:window-width="1366"
     inkscape:window-height="706"
     id="namedview2987"
     showgrid="false"
     inkscape:zoom="0.27648456"
     inkscape:cx="371.875"
     inkscape:cy="526.25"
     inkscape:window-x="-8"
     inkscape:window-y="-8"
     inkscape:window-maximized="1"
     inkscape:current-layer="g2993" /><g
     id="g2993"
     inkscape:groupmode="layer"
     inkscape:label="plate-inv"
     transform="matrix(1.25,0,0,-1.25,0,1052.5)"><g
       id="g2995"
       transform="matrix(0.1,0,0,0.1,410.87285,700.21993)"><g
         id="g2997"><g
           id="g2999"
           clip-path="url(#clipPath3001)"><path
             d="m 180,180 785.176,0 0,1063.83 -785.176,0 L 180,180 z"
             style="fill:#000000;fill-opacity:1;fill-rule:nonzero;stroke:none"
             id="path3005"
             inkscape:connector-curvature="0" /><path
             d="m 283.98,1070.89 44.641,0"
             style="fill:none;stroke:#ffffff;stroke-width:44.63999939;stroke-linecap:round;stroke-linejoin:round;stroke-miterlimit:10;stroke-opacity:1;stroke-dasharray:none"
             id="path3007"
             inkscape:connector-curvature="0" /><path
             d="m 283.98,998.895 44.641,0"
             style="fill:none;stroke:#ffffff;stroke-width:44.63999939;stroke-linecap:round;stroke-linejoin:round;stroke-miterlimit:10;stroke-opacity:1;stroke-dasharray:none"
             id="path3009"
             inkscape:connector-curvature="0" /><path
             d="m 283.98,782.895 44.641,0"
             style="fill:none;stroke:#ffffff;stroke-width:44.63999939;stroke-linecap:round;stroke-linejoin:round;stroke-miterlimit:10;stroke-opacity:1;stroke-dasharray:none"
             id="path3011"
             inkscape:connector-curvature="0" /><path
             d="m 283.98,710.895 44.641,0"
             style="fill:none;stroke:#ffffff;stroke-width:44.63999939;stroke-linecap:round;stroke-linejoin:round;stroke-miterlimit:10;stroke-opacity:1;stroke-dasharray:none"
             id="path3013"
             inkscape:connector-curvature="0" /><path
             d="m 283.98,926.895 44.641,0"
             style="fill:none;stroke:#ffffff;stroke-width:44.63999939;stroke-linecap:round;stroke-linejoin:round;stroke-miterlimit:10;stroke-opacity:1;stroke-dasharray:none"
             id="path3015"
             inkscape:connector-curvature="0" /><path
             d="m 283.98,854.895 44.641,0"
             style="fill:none;stroke:#ffffff;stroke-width:44.63999939;stroke-linecap:round;stroke-linejoin:round;stroke-miterlimit:10;stroke-opacity:1;stroke-dasharray:none"
             id="path3017"
             inkscape:connector-curvature="0" /><path
             d="m 283.98,638.895 44.641,0"
             style="fill:none;stroke:#ffffff;stroke-width:44.63999939;stroke-linecap:round;stroke-linejoin:round;stroke-miterlimit:10;stroke-opacity:1;stroke-dasharray:none"
             id="path3019"
             inkscape:connector-curvature="0" /><path
             d="m 283.98,566.895 44.641,0"
             style="fill:none;stroke:#ffffff;stroke-width:44.63999939;stroke-linecap:round;stroke-linejoin:round;stroke-miterlimit:10;stroke-opacity:1;stroke-dasharray:none"
             id="path3021"
             inkscape:connector-curvature="0" /><path
             d="m 283.98,494.895 44.641,0"
             style="fill:none;stroke:#ffffff;stroke-width:44.63999939;stroke-linecap:round;stroke-linejoin:round;stroke-miterlimit:10;stroke-opacity:1;stroke-dasharray:none"
             id="path3023"
             inkscape:connector-curvature="0" /><path
             d="m 499.98,494.895 44.641,0"
             style="fill:none;stroke:#ffffff;stroke-width:44.63999939;stroke-linecap:round;stroke-linejoin:round;stroke-miterlimit:10;stroke-opacity:1;stroke-dasharray:none"
             id="path3025"
             inkscape:connector-curvature="0" /><path
             d="m 499.98,566.895 44.641,0"
             style="fill:none;stroke:#ffffff;stroke-width:44.63999939;stroke-linecap:round;stroke-linejoin:round;stroke-miterlimit:10;stroke-opacity:1;stroke-dasharray:none"
             id="path3027"
             inkscape:connector-curvature="0" /><path
             d="m 499.98,638.895 44.641,0"
             style="fill:none;stroke:#ffffff;stroke-width:44.63999939;stroke-linecap:round;stroke-linejoin:round;stroke-miterlimit:10;stroke-opacity:1;stroke-dasharray:none"
             id="path3029"
             inkscape:connector-curvature="0" /><path
             d="m 499.98,710.895 44.641,0"
             style="fill:none;stroke:#ffffff;stroke-width:44.63999939;stroke-linecap:round;stroke-linejoin:round;stroke-miterlimit:10;stroke-opacity:1;stroke-dasharray:none"
             id="path3031"
             inkscape:connector-curvature="0" /><path
             d="m 499.98,782.895 44.641,0"
             style="fill:none;stroke:#ffffff;stroke-width:44.63999939;stroke-linecap:round;stroke-linejoin:round;stroke-miterlimit:10;stroke-opacity:1;stroke-dasharray:none"
             id="path3033"
             inkscape:connector-curvature="0" /><path
             d="m 499.98,854.895 44.641,0"
             style="fill:none;stroke:#ffffff;stroke-width:44.63999939;stroke-linecap:round;stroke-linejoin:round;stroke-miterlimit:10;stroke-opacity:1;stroke-dasharray:none"
             id="path3035"
             inkscape:connector-curvature="0" /><path
             d="m 499.98,926.895 44.641,0"
             style="fill:none;stroke:#ffffff;stroke-width:44.63999939;stroke-linecap:round;stroke-linejoin:round;stroke-miterlimit:10;stroke-opacity:1;stroke-dasharray:none"
             id="path3037"
             inkscape:connector-curvature="0" /><path
             d="m 499.98,998.895 44.641,0"
             style="fill:none;stroke:#ffffff;stroke-width:44.63999939;stroke-linecap:round;stroke-linejoin:round;stroke-miterlimit:10;stroke-opacity:1;stroke-dasharray:none"
             id="path3039"
             inkscape:connector-curvature="0" /><path
             d="m 499.98,1070.89 44.641,0"
             style="fill:none;stroke:#ffffff;stroke-width:44.63999939;stroke-linecap:round;stroke-linejoin:round;stroke-miterlimit:10;stroke-opacity:1;stroke-dasharray:none"
             id="path3041"
             inkscape:connector-curvature="0" /><path
             d="m 684.086,1000.42 -13.074,-13.072 -18.492,0 -13.075,13.072 0,18.49 13.075,13.08 18.492,0 13.074,-13.08"
             style="fill:#ffffff;fill-opacity:1;fill-rule:nonzero;stroke:none"
             id="path3043"
             inkscape:connector-curvature="0" /><path
             d="m 720.086,946.422 -13.074,-13.074 -18.492,0 -13.075,13.074 0,18.488 13.075,13.078 18.492,0 13.074,-13.078"
             style="fill:#ffffff;fill-opacity:1;fill-rule:nonzero;stroke:none"
             id="path3045"
             inkscape:connector-curvature="0" /><path
             d="m 756.086,1000.42 -13.074,-13.072 -18.492,0 -13.075,13.072 0,18.49 13.075,13.08 18.492,0 13.074,-13.08"
             style="fill:#ffffff;fill-opacity:1;fill-rule:nonzero;stroke:none"
             id="path3047"
             inkscape:connector-curvature="0" /><path
             d="m 544.621,357.699 -44.641,0"
             style="fill:none;stroke:#ffffff;stroke-width:44.63999939;stroke-linecap:round;stroke-linejoin:round;stroke-miterlimit:10;stroke-opacity:1;stroke-dasharray:none"
             id="path3049"
             inkscape:connector-curvature="0" /><path
             d="m 328.621,357.699 -44.641,0"
             style="fill:none;stroke:#ffffff;stroke-width:44.63999939;stroke-linecap:round;stroke-linejoin:round;stroke-miterlimit:10;stroke-opacity:1;stroke-dasharray:none"
             id="path3051"
             inkscape:connector-curvature="0" /><path
             d="m 667.793,338.598 13.074,13.074 18.488,0 13.075,-13.074 0,-18.493 -13.075,-13.074 -18.488,0 -13.074,13.074"
             style="fill:#ffffff;fill-opacity:1;fill-rule:nonzero;stroke:none"
             id="path3053"
             inkscape:connector-curvature="0" /><path
             d="m 739.793,338.598 13.074,13.074 18.488,0 13.075,-13.074 0,-18.493 -13.075,-13.074 -18.488,0 -13.074,13.074"
             style="fill:#ffffff;fill-opacity:1;fill-rule:nonzero;stroke:none"
             id="path3055"
             inkscape:connector-curvature="0" /><path
             d="m 312.328,1160.64 13.074,13.08 18.489,0 13.078,-13.08 0,-18.49 -13.078,-13.07 -18.489,0 -13.074,13.07"
             style="fill:#ffffff;fill-opacity:1;fill-rule:nonzero;stroke:none"
             id="path3057"
             inkscape:connector-curvature="0" /><path
             d="m 528.328,1160.64 13.074,13.08 18.489,0 13.078,-13.08 0,-18.49 -13.078,-13.07 -18.489,0 -13.074,13.07"
             style="fill:#ffffff;fill-opacity:1;fill-rule:nonzero;stroke:none"
             id="path3059"
             inkscape:connector-curvature="0" /><path
             d="m 647.098,871.793 13.074,13.074 18.492,0 13.074,-13.074 0,-18.488 -13.074,-13.075 -18.492,0 -13.074,13.075"
             style="fill:#ffffff;fill-opacity:1;fill-rule:nonzero;stroke:none"
             id="path3061"
             inkscape:connector-curvature="0" /><path
             d="m 647.098,655.793 13.074,13.074 18.492,0 13.074,-13.074 0,-18.488 -13.074,-13.075 -18.492,0 -13.074,13.075"
             style="fill:#ffffff;fill-opacity:1;fill-rule:nonzero;stroke:none"
             id="path3063"
             inkscape:connector-curvature="0" /><path
             d="m 675.086,501.172 13.285,13.285 18.789,0 13.285,-13.285 0,-18.789 -13.285,-13.285 -18.789,0 -13.285,13.285"
             style="fill:#ffffff;fill-opacity:1;fill-rule:nonzero;stroke:none"
             id="path3065"
             inkscape:connector-curvature="0" /><path
             d="m 720.445,563.777 c 0,12.524 -10.156,22.68 -22.679,22.68 -12.524,0 -22.68,-10.156 -22.68,-22.68 0,-12.523 10.156,-22.679 22.68,-22.679 12.523,0 22.679,10.156 22.679,22.679"
             style="fill:#ffffff;fill-opacity:1;fill-rule:nonzero;stroke:none"
             id="path3067"
             inkscape:connector-curvature="0" /><path
             d="m 633.418,1137.96 21.09,21.09 29.824,0 21.086,-21.09 0,-29.82 -21.086,-21.09 -29.824,0 -21.09,21.09"
             style="fill:#ffffff;fill-opacity:1;fill-rule:nonzero;stroke:none"
             id="path3069"
             inkscape:connector-curvature="0" /><path
             d="m 718.457,1137.96 21.09,21.09 29.824,0 21.086,-21.09 0,-29.82 -21.086,-21.09 -29.824,0 -21.09,21.09"
             style="fill:#ffffff;fill-opacity:1;fill-rule:nonzero;stroke:none"
             id="path3071"
             inkscape:connector-curvature="0" /><path
             d="m 718.457,882.848 21.09,21.086 29.824,0 21.086,-21.086 0,-29.825 -21.086,-21.089 -29.824,0 -21.09,21.089"
             style="fill:#ffffff;fill-opacity:1;fill-rule:nonzero;stroke:none"
             id="path3073"
             inkscape:connector-curvature="0" /><path
             d="m 718.457,712.766 21.09,21.089 29.824,0 21.086,-21.089 0,-29.821 -21.086,-21.09 -29.824,0 -21.09,21.09"
             style="fill:#ffffff;fill-opacity:1;fill-rule:nonzero;stroke:none"
             id="path3075"
             inkscape:connector-curvature="0" /><path
             d="m 718.457,797.809 21.09,21.086 29.824,0 21.086,-21.086 0,-29.825 -21.086,-21.089 -29.824,0 -21.09,21.089"
             style="fill:#ffffff;fill-opacity:1;fill-rule:nonzero;stroke:none"
             id="path3077"
             inkscape:connector-curvature="0" /><path
             d="m 590.406,330.945 13.074,13.075 18.493,0 13.074,-13.075 0,-18.492 -13.074,-13.074 -18.493,0 -13.074,13.074"
             style="fill:#ffffff;fill-opacity:1;fill-rule:nonzero;stroke:none"
             id="path3079"
             inkscape:connector-curvature="0" /><path
             d="m 590.406,402.945 13.074,13.075 18.493,0 13.074,-13.075 0,-18.492 -13.074,-13.074 -18.493,0 -13.074,13.074"
             style="fill:#ffffff;fill-opacity:1;fill-rule:nonzero;stroke:none"
             id="path3081"
             inkscape:connector-curvature="0" /><path
             d="m 669.418,1151.4 0,-28.35"
             style="fill:none;stroke:#ffffff;stroke-width:17.28000069;stroke-linecap:round;stroke-linejoin:round;stroke-miterlimit:10;stroke-opacity:1;stroke-dasharray:none"
             id="path3083"
             inkscape:connector-curvature="0" /><path
             d="m 550.648,1151.4 118.77,0"
             style="fill:none;stroke:#ffffff;stroke-width:17.28000069;stroke-linecap:round;stroke-linejoin:round;stroke-miterlimit:10;stroke-opacity:1;stroke-dasharray:none"
             id="path3085"
             inkscape:connector-curvature="0" /><path
             d="m 414.301,1151.4 -79.653,0"
             style="fill:none;stroke:#ffffff;stroke-width:17.28000069;stroke-linecap:round;stroke-linejoin:round;stroke-miterlimit:10;stroke-opacity:1;stroke-dasharray:none"
             id="path3087"
             inkscape:connector-curvature="0" /><path
             d="m 414.301,854.895 0,296.505"
             style="fill:none;stroke:#ffffff;stroke-width:17.28000069;stroke-linecap:round;stroke-linejoin:round;stroke-miterlimit:10;stroke-opacity:1;stroke-dasharray:none"
             id="path3089"
             inkscape:connector-curvature="0" /><path
             d="m 306.301,854.895 108,0"
             style="fill:none;stroke:#ffffff;stroke-width:17.28000069;stroke-linecap:round;stroke-linejoin:round;stroke-miterlimit:10;stroke-opacity:1;stroke-dasharray:none"
             id="path3091"
             inkscape:connector-curvature="0" /><path
             d="m 522.301,710.895 46.769,0"
             style="fill:none;stroke:#ffffff;stroke-width:17.28000069;stroke-linecap:round;stroke-linejoin:round;stroke-miterlimit:10;stroke-opacity:1;stroke-dasharray:none"
             id="path3093"
             inkscape:connector-curvature="0" /><path
             d="m 569.07,710.895 43.657,43.652"
             style="fill:none;stroke:#ffffff;stroke-width:17.28000069;stroke-linecap:round;stroke-linejoin:round;stroke-miterlimit:10;stroke-opacity:1;stroke-dasharray:none"
             id="path3095"
             inkscape:connector-curvature="0" /><path
             d="m 612.727,754.547 0,206.082"
             style="fill:none;stroke:#ffffff;stroke-width:17.28000069;stroke-linecap:round;stroke-linejoin:round;stroke-miterlimit:10;stroke-opacity:1;stroke-dasharray:none"
             id="path3097"
             inkscape:connector-curvature="0" /><path
             d="m 612.727,960.629 49.039,49.041"
             style="fill:none;stroke:#ffffff;stroke-width:17.28000069;stroke-linecap:round;stroke-linejoin:round;stroke-miterlimit:10;stroke-opacity:1;stroke-dasharray:none"
             id="path3099"
             inkscape:connector-curvature="0" /><path
             d="m 669.418,862.547 0,64.773"
             style="fill:none;stroke:#ffffff;stroke-width:17.28000069;stroke-linecap:round;stroke-linejoin:round;stroke-miterlimit:10;stroke-opacity:1;stroke-dasharray:none"
             id="path3101"
             inkscape:connector-curvature="0" /><path
             d="m 669.418,927.32 28.348,28.348"
             style="fill:none;stroke:#ffffff;stroke-width:17.28000069;stroke-linecap:round;stroke-linejoin:round;stroke-miterlimit:10;stroke-opacity:1;stroke-dasharray:none"
             id="path3103"
             inkscape:connector-curvature="0" /><path
             d="m 306.301,357.699 22.961,0"
             style="fill:none;stroke:#ffffff;stroke-width:17.28000069;stroke-linecap:round;stroke-linejoin:round;stroke-miterlimit:10;stroke-opacity:1;stroke-dasharray:none"
             id="path3105"
             inkscape:connector-curvature="0" /><path
             d="m 306.301,272.66 0,85.039"
             style="fill:none;stroke:#ffffff;stroke-width:17.28000069;stroke-linecap:round;stroke-linejoin:round;stroke-miterlimit:10;stroke-opacity:1;stroke-dasharray:none"
             id="path3107"
             inkscape:connector-curvature="0" /><path
             d="m 306.301,272.66 455.812,0"
             style="fill:none;stroke:#ffffff;stroke-width:17.28000069;stroke-linecap:round;stroke-linejoin:round;stroke-miterlimit:10;stroke-opacity:1;stroke-dasharray:none"
             id="path3109"
             inkscape:connector-curvature="0" /><path
             d="m 762.113,272.66 0,56.692"
             style="fill:none;stroke:#ffffff;stroke-width:17.28000069;stroke-linecap:round;stroke-linejoin:round;stroke-miterlimit:10;stroke-opacity:1;stroke-dasharray:none"
             id="path3111"
             inkscape:connector-curvature="0" /><path
             d="m 762.113,491.777 -64.347,0"
             style="fill:none;stroke:#ffffff;stroke-width:17.28000069;stroke-linecap:round;stroke-linejoin:round;stroke-miterlimit:10;stroke-opacity:1;stroke-dasharray:none"
             id="path3113"
             inkscape:connector-curvature="0" /><path
             d="m 762.113,329.352 0,162.425"
             style="fill:none;stroke:#ffffff;stroke-width:17.28000069;stroke-linecap:round;stroke-linejoin:round;stroke-miterlimit:10;stroke-opacity:1;stroke-dasharray:none"
             id="path3115"
             inkscape:connector-curvature="0" /><path
             d="m 357.609,782.895 -51.308,0"
             style="fill:none;stroke:#ffffff;stroke-width:17.28000069;stroke-linecap:round;stroke-linejoin:round;stroke-miterlimit:10;stroke-opacity:1;stroke-dasharray:none"
             id="path3117"
             inkscape:connector-curvature="0" /><path
             d="m 385.953,754.547 -28.344,28.348"
             style="fill:none;stroke:#ffffff;stroke-width:17.28000069;stroke-linecap:round;stroke-linejoin:round;stroke-miterlimit:10;stroke-opacity:1;stroke-dasharray:none"
             id="path3119"
             inkscape:connector-curvature="0" /><path
             d="m 385.953,414.391 0,340.156"
             style="fill:none;stroke:#ffffff;stroke-width:17.28000069;stroke-linecap:round;stroke-linejoin:round;stroke-miterlimit:10;stroke-opacity:1;stroke-dasharray:none"
             id="path3121"
             inkscape:connector-curvature="0" /><path
             d="m 329.262,357.699 56.691,56.692"
             style="fill:none;stroke:#ffffff;stroke-width:17.28000069;stroke-linecap:round;stroke-linejoin:round;stroke-miterlimit:10;stroke-opacity:1;stroke-dasharray:none"
             id="path3123"
             inkscape:connector-curvature="0" /><path
             d="m 522.301,494.895 0,72"
             style="fill:none;stroke:#ffffff;stroke-width:17.28000069;stroke-linecap:round;stroke-linejoin:round;stroke-miterlimit:10;stroke-opacity:1;stroke-dasharray:none"
             id="path3125"
             inkscape:connector-curvature="0" /><path
             d="m 522.301,566.895 0,72"
             style="fill:none;stroke:#ffffff;stroke-width:17.28000069;stroke-linecap:round;stroke-linejoin:round;stroke-miterlimit:10;stroke-opacity:1;stroke-dasharray:none"
             id="path3127"
             inkscape:connector-curvature="0" /><path
             d="m 522.301,638.895 59.812,0"
             style="fill:none;stroke:#ffffff;stroke-width:17.28000069;stroke-linecap:round;stroke-linejoin:round;stroke-miterlimit:10;stroke-opacity:1;stroke-dasharray:none"
             id="path3129"
             inkscape:connector-curvature="0" /><path
             d="m 582.113,638.895 144,144"
             style="fill:none;stroke:#ffffff;stroke-width:17.28000069;stroke-linecap:round;stroke-linejoin:round;stroke-miterlimit:10;stroke-opacity:1;stroke-dasharray:none"
             id="path3131"
             inkscape:connector-curvature="0" /><path
             d="m 726.113,782.895 28.344,0"
             style="fill:none;stroke:#ffffff;stroke-width:17.28000069;stroke-linecap:round;stroke-linejoin:round;stroke-miterlimit:10;stroke-opacity:1;stroke-dasharray:none"
             id="path3133"
             inkscape:connector-curvature="0" /><path
             d="m 754.457,867.934 0,141.736"
             style="fill:none;stroke:#ffffff;stroke-width:17.28000069;stroke-linecap:round;stroke-linejoin:round;stroke-miterlimit:10;stroke-opacity:1;stroke-dasharray:none"
             id="path3135"
             inkscape:connector-curvature="0" /><path
             d="m 754.457,1009.67 -20.691,0"
             style="fill:none;stroke:#ffffff;stroke-width:17.28000069;stroke-linecap:round;stroke-linejoin:round;stroke-miterlimit:10;stroke-opacity:1;stroke-dasharray:none"
             id="path3137"
             inkscape:connector-curvature="0" /><path
             d="m 754.457,1009.67 0,113.38"
             style="fill:none;stroke:#ffffff;stroke-width:17.28000069;stroke-linecap:round;stroke-linejoin:round;stroke-miterlimit:10;stroke-opacity:1;stroke-dasharray:none"
             id="path3139"
             inkscape:connector-curvature="0" /><path
             d="m 690.113,393.699 -77.386,0"
             style="fill:none;stroke:#ffffff;stroke-width:17.28000069;stroke-linecap:round;stroke-linejoin:round;stroke-miterlimit:10;stroke-opacity:1;stroke-dasharray:none"
             id="path3141"
             inkscape:connector-curvature="0" /><path
             d="m 690.113,329.352 0,64.347"
             style="fill:none;stroke:#ffffff;stroke-width:17.28000069;stroke-linecap:round;stroke-linejoin:round;stroke-miterlimit:10;stroke-opacity:1;stroke-dasharray:none"
             id="path3143"
             inkscape:connector-curvature="0" /><path
             d="m 754.457,646.547 0,51.308"
             style="fill:none;stroke:#ffffff;stroke-width:17.28000069;stroke-linecap:round;stroke-linejoin:round;stroke-miterlimit:10;stroke-opacity:1;stroke-dasharray:none"
             id="path3145"
             inkscape:connector-curvature="0" /><path
             d="m 669.418,646.547 85.039,0"
             style="fill:none;stroke:#ffffff;stroke-width:17.28000069;stroke-linecap:round;stroke-linejoin:round;stroke-miterlimit:10;stroke-opacity:1;stroke-dasharray:none"
             id="path3147"
             inkscape:connector-curvature="0" /><path
             d="m 697.766,646.547 0,-82.77"
             style="fill:none;stroke:#ffffff;stroke-width:17.28000069;stroke-linecap:round;stroke-linejoin:round;stroke-miterlimit:10;stroke-opacity:1;stroke-dasharray:none"
             id="path3149"
             inkscape:connector-curvature="0" /><path
             d="m 669.418,646.547 28.348,0"
             style="fill:none;stroke:#ffffff;stroke-width:17.28000069;stroke-linecap:round;stroke-linejoin:round;stroke-miterlimit:10;stroke-opacity:1;stroke-dasharray:none"
             id="path3151"
             inkscape:connector-curvature="0" /><path
             d="m 470.992,782.895 51.309,0"
             style="fill:none;stroke:#ffffff;stroke-width:17.28000069;stroke-linecap:round;stroke-linejoin:round;stroke-miterlimit:10;stroke-opacity:1;stroke-dasharray:none"
             id="path3153"
             inkscape:connector-curvature="0" /><path
             d="m 442.648,754.547 28.344,28.348"
             style="fill:none;stroke:#ffffff;stroke-width:17.28000069;stroke-linecap:round;stroke-linejoin:round;stroke-miterlimit:10;stroke-opacity:1;stroke-dasharray:none"
             id="path3155"
             inkscape:connector-curvature="0" /><path
             d="m 442.648,414.391 0,340.156"
             style="fill:none;stroke:#ffffff;stroke-width:17.28000069;stroke-linecap:round;stroke-linejoin:round;stroke-miterlimit:10;stroke-opacity:1;stroke-dasharray:none"
             id="path3157"
             inkscape:connector-curvature="0" /><path
             d="m 499.34,357.699 -56.692,56.692"
             style="fill:none;stroke:#ffffff;stroke-width:17.28000069;stroke-linecap:round;stroke-linejoin:round;stroke-miterlimit:10;stroke-opacity:1;stroke-dasharray:none"
             id="path3159"
             inkscape:connector-curvature="0" /><path
             d="m 499.34,357.699 22.961,0"
             style="fill:none;stroke:#ffffff;stroke-width:17.28000069;stroke-linecap:round;stroke-linejoin:round;stroke-miterlimit:10;stroke-opacity:1;stroke-dasharray:none"
             id="path3161"
             inkscape:connector-curvature="0" /><path
             d="m 522.301,357.699 36,-36"
             style="fill:none;stroke:#ffffff;stroke-width:17.28000069;stroke-linecap:round;stroke-linejoin:round;stroke-miterlimit:10;stroke-opacity:1;stroke-dasharray:none"
             id="path3163"
             inkscape:connector-curvature="0" /><path
             d="m 558.301,321.699 54.426,0"
             style="fill:none;stroke:#ffffff;stroke-width:17.28000069;stroke-linecap:round;stroke-linejoin:round;stroke-miterlimit:10;stroke-opacity:1;stroke-dasharray:none"
             id="path3165"
             inkscape:connector-curvature="0" /><path
             d="m 612.727,589.855 56.691,56.692"
             style="fill:none;stroke:#ffffff;stroke-width:17.28000069;stroke-linecap:round;stroke-linejoin:round;stroke-miterlimit:10;stroke-opacity:1;stroke-dasharray:none"
             id="path3167"
             inkscape:connector-curvature="0" /><path
             d="m 612.727,471.086 0,118.769"
             style="fill:none;stroke:#ffffff;stroke-width:17.28000069;stroke-linecap:round;stroke-linejoin:round;stroke-miterlimit:10;stroke-opacity:1;stroke-dasharray:none"
             id="path3169"
             inkscape:connector-curvature="0" /><path
             d="m 522.301,380.66 90.426,90.426"
             style="fill:none;stroke:#ffffff;stroke-width:17.28000069;stroke-linecap:round;stroke-linejoin:round;stroke-miterlimit:10;stroke-opacity:1;stroke-dasharray:none"
             id="path3171"
             inkscape:connector-curvature="0" /><path
             d="m 522.301,357.699 0,22.961"
             style="fill:none;stroke:#ffffff;stroke-width:17.28000069;stroke-linecap:round;stroke-linejoin:round;stroke-miterlimit:10;stroke-opacity:1;stroke-dasharray:none"
             id="path3173"
             inkscape:connector-curvature="0" /><path
             d="m 317.82,1070.89 c 0,6.36 -5.16,11.52 -11.519,11.52 -6.36,0 -11.52,-5.16 -11.52,-11.52 0,-6.35 5.16,-11.51 11.52,-11.51 6.359,0 11.519,5.16 11.519,11.51"
             style="fill:#000000;fill-opacity:1;fill-rule:nonzero;stroke:none"
             id="path3175"
             inkscape:connector-curvature="0" /><path
             d="m 317.82,998.895 c 0,6.355 -5.16,11.515 -11.519,11.515 -6.36,0 -11.52,-5.16 -11.52,-11.515 0,-6.36 5.16,-11.52 11.52,-11.52 6.359,0 11.519,5.16 11.519,11.52"
             style="fill:#000000;fill-opacity:1;fill-rule:nonzero;stroke:none"
             id="path3177"
             inkscape:connector-curvature="0" /><path
             d="m 317.82,782.895 c 0,6.359 -5.16,11.519 -11.519,11.519 -6.36,0 -11.52,-5.16 -11.52,-11.519 0,-6.36 5.16,-11.52 11.52,-11.52 6.359,0 11.519,5.16 11.519,11.52"
             style="fill:#000000;fill-opacity:1;fill-rule:nonzero;stroke:none"
             id="path3179"
             inkscape:connector-curvature="0" /><path
             d="m 317.82,710.895 c 0,6.359 -5.16,11.519 -11.519,11.519 -6.36,0 -11.52,-5.16 -11.52,-11.519 0,-6.36 5.16,-11.52 11.52,-11.52 6.359,0 11.519,5.16 11.519,11.52"
             style="fill:#000000;fill-opacity:1;fill-rule:nonzero;stroke:none"
             id="path3181"
             inkscape:connector-curvature="0" /><path
             d="m 317.82,926.895 c 0,6.359 -5.16,11.519 -11.519,11.519 -6.36,0 -11.52,-5.16 -11.52,-11.519 0,-6.36 5.16,-11.52 11.52,-11.52 6.359,0 11.519,5.16 11.519,11.52"
             style="fill:#000000;fill-opacity:1;fill-rule:nonzero;stroke:none"
             id="path3183"
             inkscape:connector-curvature="0" /><path
             d="m 317.82,854.895 c 0,6.359 -5.16,11.519 -11.519,11.519 -6.36,0 -11.52,-5.16 -11.52,-11.519 0,-6.36 5.16,-11.52 11.52,-11.52 6.359,0 11.519,5.16 11.519,11.52"
             style="fill:#000000;fill-opacity:1;fill-rule:nonzero;stroke:none"
             id="path3185"
             inkscape:connector-curvature="0" /><path
             d="m 317.82,638.895 c 0,6.359 -5.16,11.519 -11.519,11.519 -6.36,0 -11.52,-5.16 -11.52,-11.519 0,-6.36 5.16,-11.52 11.52,-11.52 6.359,0 11.519,5.16 11.519,11.52"
             style="fill:#000000;fill-opacity:1;fill-rule:nonzero;stroke:none"
             id="path3187"
             inkscape:connector-curvature="0" /><path
             d="m 317.82,566.895 c 0,6.359 -5.16,11.519 -11.519,11.519 -6.36,0 -11.52,-5.16 -11.52,-11.519 0,-6.36 5.16,-11.52 11.52,-11.52 6.359,0 11.519,5.16 11.519,11.52"
             style="fill:#000000;fill-opacity:1;fill-rule:nonzero;stroke:none"
             id="path3189"
             inkscape:connector-curvature="0" /><path
             d="m 317.82,494.895 c 0,6.359 -5.16,11.519 -11.519,11.519 -6.36,0 -11.52,-5.16 -11.52,-11.519 0,-6.36 5.16,-11.52 11.52,-11.52 6.359,0 11.519,5.16 11.519,11.52"
             style="fill:#000000;fill-opacity:1;fill-rule:nonzero;stroke:none"
             id="path3191"
             inkscape:connector-curvature="0" /><path
             d="m 533.82,494.895 c 0,6.359 -5.16,11.519 -11.519,11.519 -6.36,0 -11.52,-5.16 -11.52,-11.519 0,-6.36 5.16,-11.52 11.52,-11.52 6.359,0 11.519,5.16 11.519,11.52"
             style="fill:#000000;fill-opacity:1;fill-rule:nonzero;stroke:none"
             id="path3193"
             inkscape:connector-curvature="0" /><path
             d="m 533.82,566.895 c 0,6.359 -5.16,11.519 -11.519,11.519 -6.36,0 -11.52,-5.16 -11.52,-11.519 0,-6.36 5.16,-11.52 11.52,-11.52 6.359,0 11.519,5.16 11.519,11.52"
             style="fill:#000000;fill-opacity:1;fill-rule:nonzero;stroke:none"
             id="path3195"
             inkscape:connector-curvature="0" /><path
             d="m 533.82,638.895 c 0,6.359 -5.16,11.519 -11.519,11.519 -6.36,0 -11.52,-5.16 -11.52,-11.519 0,-6.36 5.16,-11.52 11.52,-11.52 6.359,0 11.519,5.16 11.519,11.52"
             style="fill:#000000;fill-opacity:1;fill-rule:nonzero;stroke:none"
             id="path3197"
             inkscape:connector-curvature="0" /><path
             d="m 533.82,710.895 c 0,6.359 -5.16,11.519 -11.519,11.519 -6.36,0 -11.52,-5.16 -11.52,-11.519 0,-6.36 5.16,-11.52 11.52,-11.52 6.359,0 11.519,5.16 11.519,11.52"
             style="fill:#000000;fill-opacity:1;fill-rule:nonzero;stroke:none"
             id="path3199"
             inkscape:connector-curvature="0" /><path
             d="m 533.82,782.895 c 0,6.359 -5.16,11.519 -11.519,11.519 -6.36,0 -11.52,-5.16 -11.52,-11.519 0,-6.36 5.16,-11.52 11.52,-11.52 6.359,0 11.519,5.16 11.519,11.52"
             style="fill:#000000;fill-opacity:1;fill-rule:nonzero;stroke:none"
             id="path3201"
             inkscape:connector-curvature="0" /><path
             d="m 533.82,854.895 c 0,6.359 -5.16,11.519 -11.519,11.519 -6.36,0 -11.52,-5.16 -11.52,-11.519 0,-6.36 5.16,-11.52 11.52,-11.52 6.359,0 11.519,5.16 11.519,11.52"
             style="fill:#000000;fill-opacity:1;fill-rule:nonzero;stroke:none"
             id="path3203"
             inkscape:connector-curvature="0" /><path
             d="m 533.82,926.895 c 0,6.359 -5.16,11.519 -11.519,11.519 -6.36,0 -11.52,-5.16 -11.52,-11.519 0,-6.36 5.16,-11.52 11.52,-11.52 6.359,0 11.519,5.16 11.519,11.52"
             style="fill:#000000;fill-opacity:1;fill-rule:nonzero;stroke:none"
             id="path3205"
             inkscape:connector-curvature="0" /><path
             d="m 533.82,998.895 c 0,6.355 -5.16,11.515 -11.519,11.515 -6.36,0 -11.52,-5.16 -11.52,-11.515 0,-6.36 5.16,-11.52 11.52,-11.52 6.359,0 11.519,5.16 11.519,11.52"
             style="fill:#000000;fill-opacity:1;fill-rule:nonzero;stroke:none"
             id="path3207"
             inkscape:connector-curvature="0" /><path
             d="m 533.82,1070.89 c 0,6.36 -5.16,11.52 -11.519,11.52 -6.36,0 -11.52,-5.16 -11.52,-11.52 0,-6.35 5.16,-11.51 11.52,-11.51 6.359,0 11.519,5.16 11.519,11.51"
             style="fill:#000000;fill-opacity:1;fill-rule:nonzero;stroke:none"
             id="path3209"
             inkscape:connector-curvature="0" /><path
             d="m 673.285,1009.67 c 0,6.36 -5.16,11.52 -11.519,11.52 -6.36,0 -11.52,-5.16 -11.52,-11.52 0,-6.36 5.16,-11.522 11.52,-11.522 6.359,0 11.519,5.162 11.519,11.522"
             style="fill:#000000;fill-opacity:1;fill-rule:nonzero;stroke:none"
             id="path3211"
             inkscape:connector-curvature="0" /><path
             d="m 709.285,955.668 c 0,6.359 -5.16,11.52 -11.519,11.52 -6.36,0 -11.52,-5.161 -11.52,-11.52 0,-6.359 5.16,-11.52 11.52,-11.52 6.359,0 11.519,5.161 11.519,11.52"
             style="fill:#000000;fill-opacity:1;fill-rule:nonzero;stroke:none"
             id="path3213"
             inkscape:connector-curvature="0" /><path
             d="m 745.285,1009.67 c 0,6.36 -5.16,11.52 -11.519,11.52 -6.36,0 -11.52,-5.16 -11.52,-11.52 0,-6.36 5.16,-11.522 11.52,-11.522 6.359,0 11.519,5.162 11.519,11.522"
             style="fill:#000000;fill-opacity:1;fill-rule:nonzero;stroke:none"
             id="path3215"
             inkscape:connector-curvature="0" /><path
             d="m 533.82,357.699 c 0,6.36 -5.16,11.52 -11.519,11.52 -6.36,0 -11.52,-5.16 -11.52,-11.52 0,-6.359 5.16,-11.519 11.52,-11.519 6.359,0 11.519,5.16 11.519,11.519"
             style="fill:#000000;fill-opacity:1;fill-rule:nonzero;stroke:none"
             id="path3217"
             inkscape:connector-curvature="0" /><path
             d="m 317.82,357.699 c 0,6.36 -5.16,11.52 -11.519,11.52 -6.36,0 -11.52,-5.16 -11.52,-11.52 0,-6.359 5.16,-11.519 11.52,-11.519 6.359,0 11.519,5.16 11.519,11.519"
             style="fill:#000000;fill-opacity:1;fill-rule:nonzero;stroke:none"
             id="path3219"
             inkscape:connector-curvature="0" /><path
             d="m 701.633,329.352 c 0,6.359 -5.16,11.519 -11.52,11.519 -6.359,0 -11.523,-5.16 -11.523,-11.519 0,-6.36 5.164,-11.52 11.523,-11.52 6.36,0 11.52,5.16 11.52,11.52"
             style="fill:#000000;fill-opacity:1;fill-rule:nonzero;stroke:none"
             id="path3221"
             inkscape:connector-curvature="0" /><path
             d="m 773.633,329.352 c 0,6.359 -5.16,11.519 -11.52,11.519 -6.359,0 -11.523,-5.16 -11.523,-11.519 0,-6.36 5.164,-11.52 11.523,-11.52 6.36,0 11.52,5.16 11.52,11.52"
             style="fill:#000000;fill-opacity:1;fill-rule:nonzero;stroke:none"
             id="path3223"
             inkscape:connector-curvature="0" /><path
             d="m 346.168,1151.4 c 0,6.36 -5.16,11.52 -11.52,11.52 -6.359,0 -11.523,-5.16 -11.523,-11.52 0,-6.36 5.164,-11.52 11.523,-11.52 6.36,0 11.52,5.16 11.52,11.52"
             style="fill:#000000;fill-opacity:1;fill-rule:nonzero;stroke:none"
             id="path3225"
             inkscape:connector-curvature="0" /><path
             d="m 562.168,1151.4 c 0,6.36 -5.16,11.52 -11.52,11.52 -6.359,0 -11.523,-5.16 -11.523,-11.52 0,-6.36 5.164,-11.52 11.523,-11.52 6.36,0 11.52,5.16 11.52,11.52"
             style="fill:#000000;fill-opacity:1;fill-rule:nonzero;stroke:none"
             id="path3227"
             inkscape:connector-curvature="0" /><path
             d="m 680.938,862.547 c 0,6.359 -5.161,11.523 -11.52,11.523 -6.359,0 -11.52,-5.164 -11.52,-11.523 0,-6.359 5.161,-11.52 11.52,-11.52 6.359,0 11.52,5.161 11.52,11.52"
             style="fill:#000000;fill-opacity:1;fill-rule:nonzero;stroke:none"
             id="path3229"
             inkscape:connector-curvature="0" /><path
             d="m 680.938,646.547 c 0,6.359 -5.161,11.523 -11.52,11.523 -6.359,0 -11.52,-5.164 -11.52,-11.523 0,-6.359 5.161,-11.52 11.52,-11.52 6.359,0 11.52,5.161 11.52,11.52"
             style="fill:#000000;fill-opacity:1;fill-rule:nonzero;stroke:none"
             id="path3231"
             inkscape:connector-curvature="0" /><path
             d="m 709.285,491.777 c 0,6.36 -5.16,11.52 -11.519,11.52 -6.36,0 -11.52,-5.16 -11.52,-11.52 0,-6.359 5.16,-11.519 11.52,-11.519 6.359,0 11.519,5.16 11.519,11.519"
             style="fill:#000000;fill-opacity:1;fill-rule:nonzero;stroke:none"
             id="path3233"
             inkscape:connector-curvature="0" /><path
             d="m 709.285,563.777 c 0,6.36 -5.16,11.52 -11.519,11.52 -6.36,0 -11.52,-5.16 -11.52,-11.52 0,-6.359 5.16,-11.519 11.52,-11.519 6.359,0 11.519,5.16 11.519,11.519"
             style="fill:#000000;fill-opacity:1;fill-rule:nonzero;stroke:none"
             id="path3235"
             inkscape:connector-curvature="0" /><path
             d="m 683.82,1123.05 c 0,7.95 -6.453,14.4 -14.402,14.4 -7.949,0 -14.398,-6.45 -14.398,-14.4 0,-7.95 6.449,-14.4 14.398,-14.4 7.949,0 14.402,6.45 14.402,14.4"
             style="fill:#000000;fill-opacity:1;fill-rule:nonzero;stroke:none"
             id="path3237"
             inkscape:connector-curvature="0" /><path
             d="m 768.859,1123.05 c 0,7.95 -6.453,14.4 -14.402,14.4 -7.949,0 -14.398,-6.45 -14.398,-14.4 0,-7.95 6.449,-14.4 14.398,-14.4 7.949,0 14.402,6.45 14.402,14.4"
             style="fill:#000000;fill-opacity:1;fill-rule:nonzero;stroke:none"
             id="path3239"
             inkscape:connector-curvature="0" /><path
             d="m 768.859,867.934 c 0,7.949 -6.453,14.402 -14.402,14.402 -7.949,0 -14.398,-6.453 -14.398,-14.402 0,-7.95 6.449,-14.399 14.398,-14.399 7.949,0 14.402,6.449 14.402,14.399"
             style="fill:#000000;fill-opacity:1;fill-rule:nonzero;stroke:none"
             id="path3241"
             inkscape:connector-curvature="0" /><path
             d="m 768.859,697.855 c 0,7.95 -6.453,14.399 -14.402,14.399 -7.949,0 -14.398,-6.449 -14.398,-14.399 0,-7.949 6.449,-14.398 14.398,-14.398 7.949,0 14.402,6.449 14.402,14.398"
             style="fill:#000000;fill-opacity:1;fill-rule:nonzero;stroke:none"
             id="path3243"
             inkscape:connector-curvature="0" /><path
             d="m 768.859,782.895 c 0,7.949 -6.453,14.402 -14.402,14.402 -7.949,0 -14.398,-6.453 -14.398,-14.402 0,-7.95 6.449,-14.399 14.398,-14.399 7.949,0 14.402,6.449 14.402,14.399"
             style="fill:#000000;fill-opacity:1;fill-rule:nonzero;stroke:none"
             id="path3245"
             inkscape:connector-curvature="0" /><path
             d="m 624.246,321.699 c 0,6.36 -5.16,11.52 -11.519,11.52 -6.36,0 -11.52,-5.16 -11.52,-11.52 0,-6.359 5.16,-11.519 11.52,-11.519 6.359,0 11.519,5.16 11.519,11.519"
             style="fill:#000000;fill-opacity:1;fill-rule:nonzero;stroke:none"
             id="path3247"
             inkscape:connector-curvature="0" /><path
             d="m 624.246,393.699 c 0,6.36 -5.16,11.52 -11.519,11.52 -6.36,0 -11.52,-5.16 -11.52,-11.52 0,-6.359 5.16,-11.519 11.52,-11.519 6.359,0 11.519,5.16 11.519,11.519"
             style="fill:#000000;fill-opacity:1;fill-rule:nonzero;stroke:none"
             id="path3249"
             inkscape:connector-curvature="0" /></g></g></g></g></svg>